<?xml version="1.0" encoding="iso-8859-1"?>
<!-- Generator: Adobe Illustrator 19.0.0, SVG Export Plug-In . SVG Version: 6.00 Build 0)  -->
<svg xmlns="http://www.w3.org/2000/svg" xmlns:xlink="http://www.w3.org/1999/xlink" version="1.1" id="Layer_1" x="0px" y="0px" viewBox="0 0 512 512" style="enable-background:new 0 0 512 512;" xml:space="preserve" width="512" height="512">
<g>
	<rect x="357" y="60" width="30" height="30"/>
	<rect x="417" y="60" width="30" height="30"/>
	<rect x="297" y="60" width="30" height="30"/>
	<path d="M0,0v512h512V0H0z M482,120H30V90h200.271l30-60H482V120z M226.729,30l-15,30H30V30H226.729z M30,482V150h452v332H30z"/>
	<rect x="75" y="301" width="178.5" height="30"/>
	<path d="M406.5,315.396V286c0-24.813-20.187-45-45-45s-45,20.187-45,45v29.396C297.493,329.539,286,352.027,286,376v15h151v-15   C437,352.027,425.507,329.539,406.5,315.396z M318.562,361c3.58-10.192,10.739-18.988,20.39-24.511l7.549-4.321V286   c0-8.271,6.729-15,15-15s15,6.729,15,15v46.168l7.549,4.321c9.65,5.523,16.81,14.319,20.39,24.511H318.562z"/>
	<rect x="75" y="241" width="178.5" height="30"/>
	<rect x="75" y="361" width="178.5" height="30"/>
</g>















</svg>
